#!OML:ASF X:\für Bonn\!DataBase\2005_08_10_Bjorn_Final\c3d\bjorn.ASF
:FULLY-SPECIFIED
:DEGREES
789
root -0.146606 1.54746 11.5229 -2070 -6.34755 188.471
lowerback -2.91058 0.138848 -3.97295
upperback 4.09971 0.40924 -4.4696
thorax 5.90566 0.0302702 -2.41135
lowerneck -17.5195 -5.35964 0.223962
upperneck 4.66017 -8.12311 5.58957
head 4.42962 -3.81474 0.973774
rclavicle -3.81667e-014 5.10877e-014
rhumerus -56.7138 44.2826 -104.074
rradius 111.832
rwrist -32.8895
rhand 10.7821 6.75463
rfingers 7.12502
rthumb 35.8678 -19.5943
lclavicle -3.81667e-014 5.10877e-014
lhumerus -60.9745 -66.9196 105.548
lradius 112.383
lwrist 34.5444
lhand 5.69344 -11.9481
lfingers 7.12502
lthumb 31.0312 735.447
rfemur -367.708 -23.5757 366.951
rtibia 29.0837
rfoot 5.30693 -11.6332
rtoes 13.9929
lfemur -6.78821 2.07317 -15.1069
ltibia 20.2291
lfoot 7.45956 9.30436
ltoes 3.41749
790
root -0.146411 1.54734 11.523 -2070 -6.34894 188.463
lowerback -2.89063 0.140564 -3.97534
upperback 4.08832 0.409687 -4.46959
thorax 5.88209 0.0306932 -2.40954
lowerneck -17.525 -5.35519 0.2208
upperneck 4.66919 -8.11632 5.58835
head 4.43318 -3.81094 0.974245
rclavicle 1.59028e-014 -2.76311e-014
rhumerus -56.733 44.2797 -104.093
rradius 111.833
rwrist -32.8895
rhand 10.7575 6.75909
rfingers 7.12502
rthumb 35.8444 -19.5955
lclavicle 1.59028e-014 -2.76311e-014
lhumerus -61.0199 -66.9106 105.589
lradius 112.39
lwrist 34.564
lhand 5.68179 -11.9362
lfingers 7.12502
lthumb 31.0201 735.461
rfemur -367.706 -23.577 366.949
rtibia 29.0809
rfoot 5.30696 -11.6342
rtoes 13.9255
lfemur -6.80084 2.14811 -15.1077
ltibia 20.2408
lfoot 7.55191 9.17078
ltoes 3.14118
791
root -0.14679 1.54781 11.5231 -2070 -6.34927 188.455
lowerback -2.88058 0.144965 -3.96767
upperback 4.0801 0.413991 -4.47395
thorax 5.86774 0.0333582 -2.41781
lowerneck -17.5232 -5.36218 0.198893
upperneck 4.67179 -8.12395 5.61183
head 4.43591 -3.81382 0.984077
rclavicle -3.49861e-014 7.13637e-014
rhumerus -56.7476 44.2504 -104.097
rradius 111.839
rwrist -32.8804
rhand 10.8138 6.7773
rfingers 7.12502
rthumb 35.8977 -19.5643
lclavicle -3.49861e-014 7.13637e-014
lhumerus -61.0708 -66.917 105.627
lradius 112.396
lwrist 34.5753
lhand 5.64462 -11.9446
lfingers 7.12502
lthumb 30.9846 735.46
rfemur -367.704 -23.6397 366.938
rtibia 29.0783
rfoot 5.34033 -11.5948
rtoes 13.7931
lfemur -6.8121 2.19602 -15.1106
ltibia 20.2505
lfoot 7.62968 9.07759
ltoes 2.94686
792
root -0.146647 1.54759 11.523 -2070.01 -6.35006 188.457
lowerback -2.86511 0.144352 -3.95633
upperback 4.08211 0.411402 -4.48649
thorax 5.86112 0.0325794 -2.43748
lowerneck -17.535 -5.35858 0.221299
upperneck 4.65855 -8.12389 5.60487
head 4.4324 -3.81438 0.978399
rclavicle 3.33958e-014 -6.02318e-014
rhumerus -56.7221 44.248 -104.091
rradius 111.827
rwrist -32.8979
rhand 10.8321 6.80037
rfingers 7.12502
rthumb 35.9151 -19.5369
lclavicle 3.33958e-014 -6.02318e-014
lhumerus -61.0783 -66.9268 105.612
lradius 112.409
lwrist 34.6134
lhand 5.61368 -11.9208
lfingers 7.12502
lthumb 30.9551 735.489
rfemur -367.693 -23.6384 366.934
rtibia 29.077
rfoot 5.33511 -11.6097
rtoes 13.7739
lfemur -6.81418 2.15335 -15.1144
ltibia 20.259
lfoot 7.62975 9.06387
ltoes 2.70427
793
root -0.147192 1.54782 11.5228 -2070.02 -6.36624 188.449
lowerback -2.84746 0.149036 -3.96398
upperback 4.07497 0.416121 -4.49471
thorax 5.84352 0.0346422 -2.44118
lowerneck -17.5371 -5.35726 0.227574
upperneck 4.66695 -8.12251 5.59546
head 4.43463 -3.8137 0.9745
rclavicle 1.74931e-014 2.04748e-014
rhumerus -56.7171 44.2267 -104.086
rradius 111.815
rwrist -32.8652
rhand 10.8761 6.83455
rfingers 7.12502
rthumb 35.9568 -19.4926
lclavicle 1.74931e-014 2.04748e-014
lhumerus -61.1249 -66.9307 105.646
lradius 112.422
lwrist 34.6293
lhand 5.5807 -11.9072
lfingers 7.12502
lthumb 30.9237 735.509
rfemur -367.686 -23.6549 366.908
rtibia 29.0766
rfoot 5.34888 -11.588
rtoes 13.6595
lfemur -6.8132 2.16442 -15.1339
ltibia 20.2678
lfoot 7.64082 9.02946
ltoes 2.61473
794
root -0.147012 1.54828 11.523 -2070.02 -6.36655 188.443
lowerback -2.83478 0.146152 -3.96656
upperback 4.06521 0.411236 -4.49774
thorax 5.82586 0.0324609 -2.44297
lowerneck -17.5425 -5.35507 0.229767
upperneck 4.67928 -8.1202 5.59276
head 4.43905 -3.8121 0.973217
rclavicle 1.43125e-014 -4.51241e-014
rhumerus -56.7421 44.2183 -104.11
rradius 111.824
rwrist -32.8779
rhand 10.8948 6.81534
rfingers 7.12502
rthumb 35.9745 -19.5074
lclavicle 1.43125e-014 -4.51241e-014
lhumerus -61.1738 -66.9173 105.678
lradius 112.428
lwrist 34.6578
lhand 5.57138 -11.9104
lfingers 7.12502
lthumb 30.9148 735.507
rfemur -367.685 -23.6436 366.91
rtibia 29.076
rfoot 5.3356 -11.5981
rtoes 13.6074
lfemur -6.8247 2.24042 -15.1331
ltibia 20.274
lfoot 7.72997 8.9264
ltoes 2.25695
795
root -0.146842 1.54814 11.5229 -2070.03 -6.35272 188.445
lowerback -2.81367 0.147232 -3.93765
upperback 4.06764 0.409648 -4.50805
thorax 5.8165 0.0329931 -2.47
lowerneck -17.5603 -5.35522 0.227087
upperneck 4.66939 -8.12528 5.62522
head 4.44057 -3.81348 0.982736
rclavicle 3.02153e-014 1.31198e-014
rhumerus -56.7148 44.1937 -104.117
rradius 111.81
rwrist -32.8539
rhand 10.9307 6.83835
rfingers 7.12502
rthumb 36.0085 -19.4761
lclavicle 3.02153e-014 1.31198e-014
lhumerus -61.1819 -66.9342 105.665
lradius 112.436
lwrist 34.7005
lhand 5.53802 -11.9051
lfingers 7.12502
lthumb 30.883 735.519
rfemur -367.671 -23.7031 366.913
rtibia 29.0732
rfoot 5.36989 -11.5652
rtoes 13.4719
lfemur -6.82461 2.26463 -15.1149
ltibia 20.2832
lfoot 7.7613 8.86048
ltoes 2.08257
796
root -0.147297 1.54846 11.5226 -2070.03 -6.35291 188.438
lowerback -2.7904 0.14756 -3.93741
upperback 4.05288 0.407885 -4.50657
thorax 5.78744 0.0325933 -2.46817
lowerneck -17.5576 -5.35558 0.21818
upperneck 4.69445 -8.12317 5.62009
head 4.448 -3.81172 0.982425
rclavicle 6.36111e-015 -2.24627e-014
rhumerus -56.7372 44.1825 -104.128
rradius 111.812
rwrist -32.8403
rhand 10.9526 6.8373
rfingers 7.12502
rthumb 36.0293 -19.472
lclavicle 6.36111e-015 -2.24627e-014
lhumerus -61.2582 -66.9232 105.72
lradius 112.457
lwrist 34.7197
lhand 5.49556 -11.8601
lfingers 7.12502
lthumb 30.8425 735.571
rfemur -367.66 -23.7038 366.907
rtibia 29.07
rfoot 5.37031 -11.5663
rtoes 13.4128
lfemur -6.81714 2.25995 -15.1155
ltibia 20.2922
lfoot 7.74435 8.86058
ltoes 2.07999
797
root -0.147289 1.54847 11.5226 -2070.04 -6.33815 188.439
lowerback -2.77 0.148247 -3.91932
upperback 4.053 0.406397 -4.50395
thorax 5.77584 0.0327397 -2.47547
lowerneck -17.5787 -5.35487 0.239589
upperneck 4.68301 -8.12312 5.58844
head 4.44533 -3.81314 0.969127
rclavicle -3.18055e-015 5.36719e-015
rhumerus -56.7461 44.1684 -104.124
rradius 111.812
rwrist -32.8167
rhand 10.976 6.84937
rfingers 7.12502
rthumb 36.0515 -19.4545
lclavicle -3.18055e-015 5.36719e-015
lhumerus -61.2655 -66.9264 105.727
lradius 112.457
lwrist 34.7373
lhand 5.46758 -11.8681
lfingers 7.12502
lthumb 30.8159 735.568
rfemur -367.644 -23.6946 366.92
rtibia 29.0688
rfoot 5.33991 -11.5804
rtoes 13.4907
lfemur -6.8135 2.2362 -15.1047
ltibia 20.2988
lfoot 7.75207 8.84434
ltoes 1.87569
798
root -0.14746 1.54899 11.5225 -2070.04 -6.33998 188.433
lowerback -2.76911 0.152555 -3.9123
upperback 4.04568 0.411347 -4.51118
thorax 5.76777 0.0356462 -2.48645
lowerneck -17.5642 -5.35986 0.235362
upperneck 4.6836 -8.13031 5.59981
head 4.44416 -3.81648 0.972928
rclavicle -5.24792e-014 3.47873e-014
rhumerus -56.7497 44.146 -104.127
rradius 111.809
rwrist -32.8412
rhand 11.0148 6.87452
rfingers 7.12502
rthumb 36.0882 -19.4203
lclavicle -5.24792e-014 3.47873e-014
lhumerus -61.3021 -66.9327 105.745
lradius 112.472
lwrist 34.7793
lhand 5.48327 -11.853
lfingers 7.12502
lthumb 30.8308 735.581
rfemur -367.644 -23.7146 366.913
rtibia 29.0679
rfoot 5.35699 -11.5765
rtoes 13.4662
lfemur -6.81372 2.2364 -15.1073
ltibia 20.304
lfoot 7.75361 8.84362
ltoes 1.77003
